<svg xmlns="http://www.w3.org/2000/svg" width="512" height="512" viewBox="0 0 512 512">
  <rect width="512" height="512" fill="#1A1A1A" rx="92"/>
  <rect x="26" y="26" width="460" height="460" fill="#2A2A2A" rx="92"/>
  <g transform="translate(106, 96)">
    <path d="M150 10 L15 25 L15 50 C15 75 150 90 150 90 C150 90 285 75 285 50 L285 25 Z" fill="#e53935"/>
    <path d="M130 30 L130 65 L170 65 L170 30 Z" fill="#ffffff"/>
    <path d="M100 40 L100 80 L200 80 L200 40 Z" fill="#1a1a1a" transform="translate(0,5)"/>
    <path d="M120 35 L120 60 L140 55 L140 40 Z" fill="#ffffff"/>
    <path d="M160 35 L160 55 L180 60 L180 40 Z" fill="#ffffff"/>
    <path d="M135 45 L165 45 L165 52 L135 52 Z" fill="#ffffff"/>
    <rect x="145" y="58" width="10" height="20" rx="3" fill="#ffffff"/>
  </g>
  <text x="256" y="420" text-anchor="middle" fill="#ffffff" font-family="'Inter','Segoe UI',Arial,sans-serif" font-size="42" font-weight="700" letter-spacing="2">MEDIAVAULT</text>
</svg>
